Motion_pu07
version=1
nRows=9
nColumns=43
inDegrees=yes
endheader
time	pelvis_tilt	pelvis_list	pelvis_rotation	pelvis_tx	pelvis_ty	pelvis_tz	hip_flexion_r	hip_adduction_r	hip_rotation_r	knee_angle_r	ankle_angle_r	subtalar_angle_r	mtp_angle_r	hip_flexion_l	hip_adduction_l	hip_rotation_l	knee_angle_l	ankle_angle_l	subtalar_angle_l	mtp_angle_l	lumbar_extension	lumbar_bending	lumbar_rotation	neck_flexion	neck_lateral_bending	neck_rotation	arm_flex_r	arm_add_r	arm_rot_r	elbow_flex_r	pro_sup_r	wrist_flex_r	wrist_dev_r	hand_finger_flex_r	arm_flex_l	arm_add_l	arm_rot_l	elbow_flex_l	pro_sup_l	wrist_flex_l	wrist_dev_l	hand_finger_flex_l
      1.64250000	      2.15678965	    -20.32177664	     88.52554814	     -0.02812443	      0.64890661	      0.39458389	     84.42250003	     -6.63514743	     -1.94067549	   -102.89400948	     23.02101367	      8.77283935	     17.80347965	     85.31725642	     -8.74157154	      2.06483686	   -105.18789157	     16.61231720	     19.28770793	     35.93380177	    -47.52699823	     -0.48867173	     -0.67046543	     31.69803521	      0.29735751	      1.36295962	     64.26475975	    -35.38325972	      5.05013421	     97.00533371	     88.52088652	      2.08152776	    -19.99844579	      5.01547698	     58.56576637	    -29.65432443	     -0.38785428	     81.42948256	    102.38655469	    -33.42690485	    -18.26434523	      5.37161702
      1.64500000	      2.14788346	    -20.28507747	     88.53450029	     -0.02814416	      0.64956483	      0.39430442	     84.29569212	     -6.64486803	     -1.93609902	   -102.80209519	     22.99839872	      8.76920616	     17.81175541	     85.18534978	     -8.75634411	      2.02155961	   -105.09059734	     16.58874510	     19.29439724	     35.93892745	    -47.46499745	     -0.47977270	     -0.69266747	     31.66433187	      0.27543536	      1.37574296	     64.02336195	    -35.47731802	      5.03754594	     97.05244223	     88.50830448	      2.08303282	    -20.00004027	      5.02634197	     58.36058114	    -29.71923133	     -0.41358076	     81.45085587	    102.37847334	    -33.42950814	    -18.25725279	      5.39076263
      1.64750000	      2.07589747	    -20.19340864	     88.53203721	     -0.02823038	      0.65022067	      0.39392792	     84.13595647	     -6.71398653	     -1.89145515	   -102.75953925	     22.99180860	      8.74824361	     17.87086260	     84.97983832	     -8.76395569	      1.89155198	   -105.00691911	     16.56712231	     19.32171107	     35.97920281	    -47.49979415	     -0.51833694	     -0.74463254	     31.50567481	      0.21533343	      1.43046593	     63.63104493	    -35.59361541	      4.80547043	     97.34575487	     88.43226303	      2.02056352	    -20.01909762	      5.04585061	     58.08050851	    -29.78219641	     -0.53166706	     81.72550607	    102.33376973	    -33.42045416	    -18.22965271	      5.47117412
      1.65000000	      2.07093040	    -20.16986105	     88.54516023	     -0.02828075	      0.65088243	      0.39371802	     84.03892421	     -6.70015808	     -1.87739464	   -102.67991057	     22.97206104	      8.75088101	     17.87749042	     84.87685262	     -8.75488660	      1.86508626	   -104.92350537	     16.55145709	     19.32523081	     35.98333981	    -47.41479584	     -0.50234319	     -0.76387898	     31.54774632	      0.21718064	      1.43484073	     63.42885365	    -35.65956474	      4.82102666	     97.29406561	     88.43400874	      2.02253327	    -19.99182895	      5.05490633	     57.89586771	    -29.81082161	     -0.53565300	     81.65645956	    102.31947966	    -33.41502028	    -18.19607403	      5.48560327
      1.65250000	      2.05937171	    -20.14609404	     88.56193384	     -0.02834285	      0.65156353	      0.39350047	     83.92320497	     -6.70895914	     -1.85788787	   -102.57253660	     22.94703004	      8.75335267	     17.88436549	     84.75430216	     -8.75060849	      1.82620774	   -104.80762142	     16.53178543	     19.33013457	     35.98739182	    -47.33863759	     -0.48098592	     -0.79060819	     31.54979300	      0.21084726	      1.44391942	     63.20225025	    -35.74425793	      4.81581871	     97.28446036	     88.43340907	      2.02504096	    -19.97534319	      5.06578234	     57.69145968	    -29.85630271	     -0.55753912	     81.62043630	    102.30401939	    -33.41579869	    -18.16832709	      5.49867349
      1.65500000	      1.98152507	    -20.08587185	     88.60358646	     -0.02847714	      0.65237002	      0.39319327	     83.75749130	     -6.81429185	     -1.81705759	   -102.46711307	     22.91978887	      8.75844045	     17.93676514	     84.54127300	     -8.69780489	      1.69283102	   -104.64266916	     16.51160101	     19.35503066	     36.02154991	    -47.34704881	     -0.48974277	     -0.88291175	     31.39885555	      0.17647061	      1.49814943	     62.80515918	    -35.84849750	      4.61170632	     97.52878007	     88.40051561	      1.98320208	    -19.97355736	      5.09186729	     57.41175994	    -29.89493397	     -0.67551114	     81.82933962	    102.24483609	    -33.40726093	    -18.10657444	      5.54576167
      1.65750000	      1.98535009	    -20.06494914	     88.63661866	     -0.02850925	      0.65310612	      0.39298136	     83.65570441	     -6.80472025	     -1.79439523	   -102.39050210	     22.89932072	      8.76232591	     17.94249611	     84.42913227	     -8.68946400	      1.67368042	   -104.55938560	     16.49451501	     19.35779190	     36.02461450	    -47.26323257	     -0.46542767	     -0.90832124	     31.44528758	      0.17898092	      1.50444479	     62.59714065	    -35.91736523	      4.62069972	     97.45979281	     88.40676515	      1.98396977	    -19.94345730	      5.10032460	     57.21520594	    -29.92151504	     -0.67526035	     81.75570872	    102.22979236	    -33.40066288	    -18.07094660	      5.55488200
      1.66000000	      1.98543945	    -20.03929693	     88.67760277	     -0.02856482	      0.65395035	      0.39277829	     83.51489562	     -6.81209850	     -1.77641025	   -102.26555595	     22.87073902	      8.76659079	     17.94780249	     84.29912412	     -8.67045673	      1.63892898	   -104.41401496	     16.47151117	     19.36338490	     36.02705307	    -47.19904653	     -0.42762792	     -0.93688787	     31.45661177	      0.17617846	      1.51590578	     62.34657108	    -35.99841914	      4.62124205	     97.42797086	     88.41118675	      1.98686600	    -19.92329380	      5.11104587	     56.99928211	    -29.96699907	     -0.69520859	     81.70542235	    102.21214443	    -33.39934662	    -18.03890690	      5.56176338
      1.66250000	      1.92724019	    -19.87623204	     88.81916792	     -0.02867419	      0.65493423	      0.39232461	     83.22500184	     -7.00332229	     -1.78061692	   -102.19132513	     22.87418862	      8.77408663	     18.04677107	     83.97884674	     -8.53757183	      1.56349105	   -104.25186014	     16.44176039	     19.41202816	     36.08891637	    -47.31646482	     -0.38831775	     -1.07629936	     31.35516764	      0.18707604	      1.62436880	     61.81355128	    -36.00719808	      4.28237699	     97.71487494	     88.38832354	      1.89460500	    -19.88818261	      5.14948425	     56.69828150	    -29.94943617	     -0.83545206	     81.97658354	    102.08753679	    -33.32335903	    -17.89035886	      5.59529154
